<?xml version="1.0" encoding="UTF-8" standalone="no"?>
<!DOCTYPE svg PUBLIC "-//W3C//DTD SVG 1.1//EN" "http://www.w3.org/Graphics/SVG/1.1/DTD/svg11.dtd">
<svg width="100%" height="100%" viewBox="0 0 64 64" version="1.1" xmlns="http://www.w3.org/2000/svg" xmlns:xlink="http://www.w3.org/1999/xlink" xml:space="preserve" xmlns:serif="http://www.serif.com/" style="fill-rule:evenodd;clip-rule:evenodd;stroke-linejoin:round;stroke-miterlimit:2;">
    <g transform="matrix(1.10014,0,0,1.10014,-5.09191,-6.40878)">
        <circle cx="33.716" cy="34.913" r="29.087" style="fill:white;"/>
    </g>
    <g transform="matrix(1,0,0,-1,-1.71571,64)">
        <path d="M51.082,35.554C51.299,35.251 52.548,33.51 52.136,31.009C52.009,30.24 51.733,29.478 51.323,28.814C51.215,28.64 50.504,27.489 49.555,26.954C36.329,19.497 36.286,19.573 23.417,11.512C21.107,10.066 20.878,10.805 18.543,12.21C18.535,12.215 17.994,14.672 17.997,14.689C18.14,15.555 18.694,16.346 19.313,16.968C20.837,18.502 22.671,19.691 24.337,21.069C33.599,28.731 33.496,28.846 42.446,36.868C43.258,37.595 44.575,37.9 44.776,37.946C45.134,38.029 47.197,38.505 49.31,37.198C50.352,36.555 50.367,36.551 51.082,35.554Z" style="fill:rgb(6,0,0);"/>
    </g>
    <g transform="matrix(1,0,0,1,-1.71571,0)">
        <path d="M51.082,35.554C50.864,35.858 49.615,37.599 47.115,38.011C46.345,38.138 45.536,38.121 44.776,37.946C44.575,37.9 43.258,37.595 42.446,36.868C31.139,26.734 31.198,26.669 19.434,17.067C17.323,15.344 17.945,14.888 18.531,12.226C18.533,12.218 20.686,10.917 20.704,10.914C21.569,10.772 22.497,11.043 23.285,11.429C25.226,12.38 26.941,13.736 28.781,14.872C39.01,21.186 39.086,21.051 49.555,26.954C50.504,27.489 51.215,28.64 51.323,28.814C52.63,30.928 52.153,32.991 52.07,33.349C51.795,34.542 51.796,34.558 51.082,35.554Z" style="fill:rgb(6,0,0);"/>
    </g>
</svg>
