<?xml version="1.0" encoding="UTF-8" standalone="no"?>
<!DOCTYPE svg PUBLIC "-//W3C//DTD SVG 1.1//EN" "http://www.w3.org/Graphics/SVG/1.1/DTD/svg11.dtd">
<svg width="100%" height="100%" viewBox="0 0 64 64" version="1.1" xmlns="http://www.w3.org/2000/svg" xmlns:xlink="http://www.w3.org/1999/xlink" xml:space="preserve" xmlns:serif="http://www.serif.com/" style="fill-rule:evenodd;clip-rule:evenodd;stroke-linejoin:round;stroke-miterlimit:2;">
    <g transform="matrix(1.10014,0,0,1.10014,-5.09191,-6.40878)">
        <circle cx="33.716" cy="34.913" r="29.087"/>
    </g>
    <g transform="matrix(1,0,0,-1,-20.7107,84.3242)">
        <path d="M48.695,29.523C47.681,28.471 47.613,28.438 46.151,28.394C45.241,28.367 44.298,28.782 43.599,29.364C43.184,29.708 29.452,43.27 29.408,43.373C29.069,44.173 28.411,44.906 28.394,45.775C28.394,45.793 29.325,48.189 29.333,48.193C31.76,49.24 32.05,49.909 34.138,48.282C34.528,47.978 48.624,34.72 48.665,34.622C49.021,33.785 49.723,33.018 49.729,32.108C49.74,30.646 49.709,30.576 48.695,29.523Z" style="fill:white;"/>
    </g>
    <g transform="matrix(1,0,0,1,-6.58598,4.86284)">
        <path d="M59.469,8.379C61.438,9.763 61.952,11.541 62.049,11.875C62.131,12.161 62.677,14.051 61.552,15.562C56.912,21.794 52.026,27.84 47.227,33.951C46.246,35.2 35.112,49.376 34.892,49.506C34.108,49.971 33.437,50.742 32.539,50.898C32.522,50.901 29.96,50.362 29.955,50.354C29.497,49.609 28.734,48.979 28.584,48.118C28.427,47.22 28.651,46.228 29.096,45.433C32.334,39.661 36.043,34.167 39.555,28.559C43.677,21.976 47.851,15.426 51.999,8.859C52.994,7.285 55.008,7.155 55.306,7.136C55.653,7.113 57.5,6.995 59.469,8.379Z" style="fill:white;"/>
    </g>
</svg>
